<?xml version="1.0" encoding="utf-8"?>
<!-- Generator: Adobe Illustrator 16.0.0, SVG Export Plug-In . SVG Version: 6.00 Build 0)  -->
<!DOCTYPE svg PUBLIC "-//W3C//DTD SVG 1.1//EN" "http://www.w3.org/Graphics/SVG/1.1/DTD/svg11.dtd">
<svg version="1.1" id="Layer_1" xmlns="http://www.w3.org/2000/svg" xmlns:xlink="http://www.w3.org/1999/xlink" x="0px" y="0px"
	 width="140px" height="60px" viewBox="0 0 140 60" enable-background="new 0 0 140 60" xml:space="preserve">
<g enable-background="new    ">
	<path fill="#474647" d="M5.513,6.161l0.084-0.804h0.688l0.531-1.724h0.596L7.23,5.357h0.92L8.065,6.161h-0.92l-0.512,4.872
		c-0.048,0.458,0.053,0.687,0.304,0.687c0.164,0,0.344-0.069,0.54-0.208l0.114,0.765c-0.313,0.181-0.625,0.272-0.936,0.272
		c-0.777,0-1.105-0.574-0.985-1.723l0.49-4.665H5.513z"/>
	<path fill="#474647" d="M9.514,12.355H8.516l1.008-9.589h0.946l-0.36,3.421c0.279-0.682,0.743-1.023,1.39-1.023
		c0.449,0,0.772,0.199,0.968,0.596c0.195,0.398,0.238,1.124,0.127,2.177l-0.464,4.419h-0.998l0.501-4.769
		c0.114-1.08-0.042-1.62-0.464-1.62c-0.64,0-1.065,0.924-1.276,2.773L9.514,12.355z"/>
	<path fill="#474647" d="M16.602,12.108c-0.325,0.294-0.765,0.44-1.323,0.44c-0.557,0-0.976-0.196-1.259-0.589
		c-0.283-0.393-0.37-1.103-0.262-2.132l0.204-1.943c0.108-1.028,0.345-1.738,0.71-2.132c0.365-0.393,0.841-0.589,1.429-0.589
		c0.587,0,1.012,0.194,1.272,0.583c0.262,0.389,0.338,1.102,0.229,2.138l-0.146,1.387h-2.656l-0.078,0.738
		c-0.122,1.158,0.094,1.736,0.646,1.736c0.268,0,0.485-0.095,0.652-0.285c0.166-0.19,0.307-0.544,0.422-1.062l0.854,0.142
		C17.158,11.292,16.926,11.815,16.602,12.108z M14.966,7.703l-0.078,0.739h1.658l0.078-0.739c0.122-1.158-0.09-1.736-0.634-1.736
		C15.429,5.966,15.087,6.545,14.966,7.703z"/>
</g>
<g>
	<g>
		<rect x="89.83" y="11.47" fill="#71BF4D" width="47.855" height="33.603"/>
		<g>
			<g enable-background="new    ">
				<path d="M10.429,35.115c0-1.804-0.609-3.191-1.827-4.161l-2.707-1.996c-2.03-1.443-3.045-3.574-3.045-6.394
					c0-2.346,0.445-3.986,1.336-4.923c0.891-0.936,2.109-1.404,3.654-1.404c1.544,0,2.746,0.435,3.603,1.303
					c0.857,0.869,1.375,2.441,1.556,4.72l-2.571,0.575c-0.09-2.887-0.93-4.33-2.52-4.33c-1.59,0-2.385,1.229-2.385,3.688
					c0,1.082,0.118,1.962,0.355,2.639s0.694,1.285,1.371,1.826l2.672,1.996c0.631,0.452,1.139,0.88,1.522,1.286
					c0.383,0.405,0.75,1.055,1.1,1.945c0.349,0.891,0.524,1.945,0.524,3.163c0,2.165-0.469,3.688-1.404,4.567
					c-0.936,0.879-2.205,1.319-3.806,1.319c-1.602,0-2.854-0.519-3.755-1.557c-0.902-1.037-1.455-2.887-1.658-5.548l2.537-0.44
					c0.09,1.918,0.367,3.282,0.829,4.094c0.462,0.812,1.11,1.218,1.945,1.218C9.538,38.701,10.429,37.506,10.429,35.115z"/>
				<path d="M14.929,18.91v-2.165h9.236v2.165h-3.282v21.517H18.21V18.91H14.929z"/>
				<path d="M33.705,40.427l-1.049-6.157h-4.77l-1.015,6.157h-2.706l4.33-23.682h3.586l4.331,23.682H33.705z M30.288,20.162
					l-2.03,11.942h4.026L30.288,20.162z"/>
				<path d="M39.084,40.427V16.745h4.195c1.669,0,2.966,0.53,3.891,1.59c0.925,1.061,1.387,2.966,1.387,5.718v0.169
					c0,3.429-0.834,5.604-2.503,6.529l2.808,9.676h-2.774l-2.639-9.066h-1.658v9.066H39.084z M45.884,24.561v-1.016
					c0-1.736-0.231-2.943-0.693-3.62c-0.462-0.676-1.1-1.015-1.912-1.015h-1.488v10.318h1.488
					C45.016,29.229,45.884,27.673,45.884,24.561z"/>
				<path d="M50.451,18.91v-2.165h9.236v2.165h-3.282v21.517h-2.673V18.91H50.451z"/>
				<path d="M69.835,16.745h2.672v16.611c0,2.864-0.456,4.844-1.37,5.937c-0.913,1.095-2.205,1.642-3.874,1.642
					c-1.669,0-2.96-0.547-3.874-1.642c-0.914-1.093-1.37-3.072-1.37-5.937V16.745h2.673v17.118c0,1.827,0.225,3.096,0.676,3.807
					c0.451,0.71,1.077,1.065,1.878,1.065c0.8,0,1.432-0.355,1.895-1.065c0.462-0.711,0.693-1.979,0.693-3.807V16.745z"/>
				<path d="M76.533,40.427V16.745h4.195c1.691,0,2.994,0.547,3.907,1.641c0.914,1.095,1.37,3.073,1.37,5.938v0.169
					c0,2.865-0.456,4.838-1.37,5.921c-0.913,1.082-2.216,1.624-3.907,1.624H79.24v8.39H76.533z M83.334,24.933v-1.049
					c0-3.315-0.869-4.974-2.605-4.974H79.24v10.995h1.488C82.465,29.905,83.334,28.248,83.334,24.933z"/>
			</g>
			<g enable-background="new    ">
				<path fill="#FFFFFF" d="M94.931,40.427V16.745h2.706v21.517h5.244v2.165H94.931z"/>
				<path fill="#FFFFFF" d="M105.52,40.427V16.745h2.706v23.682H105.52z"/>
				<path fill="#FFFFFF" d="M115.195,29.702v10.725h-2.707V16.745h8.119v2.165h-5.412v8.627h4.904v2.165H115.195z"/>
				<path fill="#FFFFFF" d="M126.122,29.702v8.56h5.886v2.165h-8.592V16.745h8.491v2.165h-5.785v8.627h5.277v2.165H126.122z"/>
			</g>
		</g>
	</g>
	<g enable-background="new    ">
		<path fill="#474647" d="M67.874,47.443l-0.312,2.972c0.265-0.599,0.655-0.897,1.17-0.897c0.396,0,0.682,0.168,0.856,0.505
			c0.174,0.336,0.213,0.953,0.119,1.851l-0.177,1.682c-0.094,0.897-0.264,1.514-0.508,1.851c-0.246,0.337-0.566,0.505-0.962,0.505
			c-0.591,0-0.92-0.415-0.99-1.245l-0.36,1.077h-0.527l0.872-8.299H67.874z M67.32,52.713c-0.071,0.674-0.083,1.205-0.039,1.594
			c0.045,0.389,0.118,0.637,0.219,0.746c0.101,0.107,0.245,0.162,0.432,0.162c0.403,0,0.654-0.464,0.751-1.391l0.233-2.221
			c0.097-0.927-0.052-1.391-0.449-1.391c-0.172,0-0.321,0.053-0.448,0.156c-0.127,0.105-0.254,0.337-0.381,0.695
			c-0.127,0.359-0.229,0.857-0.302,1.492L67.32,52.713z"/>
		<path fill="#474647" d="M71.377,57.604c-0.235,0.217-0.513,0.325-0.831,0.325c-0.317,0-0.635-0.169-0.95-0.505l0.364-0.583
			c0.25,0.247,0.477,0.37,0.679,0.37c0.313,0,0.555-0.307,0.725-0.92l0.145-0.516l-0.841-6.09h0.863l0.503,4.396l1.303-4.396h0.875
			l-2.281,6.977C71.797,57.072,71.612,57.387,71.377,57.604z"/>
		<path fill="#474647" d="M78.225,54.385c0.045-0.426-0.078-0.752-0.369-0.976l-0.716-0.55c-0.535-0.381-0.764-0.945-0.685-1.693
			c0.063-0.605,0.237-1.031,0.521-1.279c0.284-0.246,0.646-0.369,1.088-0.369c0.44,0,0.772,0.115,0.995,0.348
			s0.327,0.654,0.315,1.268l-0.791,0.156c0.039-0.725-0.153-1.088-0.575-1.088c-0.423,0-0.664,0.296-0.727,0.887
			c-0.05,0.479,0.069,0.834,0.358,1.065l0.687,0.516c0.174,0.128,0.31,0.241,0.407,0.342s0.185,0.27,0.261,0.505
			c0.077,0.236,0.098,0.51,0.064,0.824c-0.061,0.576-0.236,0.981-0.531,1.217c-0.294,0.236-0.671,0.354-1.131,0.354
			c-0.459,0-0.806-0.137-1.039-0.41c-0.232-0.271-0.343-0.753-0.331-1.44l0.812-0.146c-0.021,0.486,0.02,0.826,0.122,1.02
			c0.103,0.195,0.263,0.293,0.48,0.293C77.904,55.227,78.166,54.945,78.225,54.385z"/>
		<path fill="#474647" d="M80.159,50.381l0.073-0.695h0.594l0.459-1.491h0.517l-0.156,1.491h0.796l-0.073,0.695h-0.796l-0.443,4.217
			c-0.041,0.396,0.047,0.594,0.264,0.594c0.142,0,0.297-0.059,0.467-0.179l0.099,0.661c-0.271,0.158-0.541,0.236-0.811,0.236
			c-0.673,0-0.956-0.497-0.852-1.492l0.424-4.037H80.159z"/>
		<path fill="#474647" d="M83.22,52.416c0.237-0.258,0.55-0.387,0.938-0.387s0.68,0.15,0.873,0.449l0.123-1.178
			c0.075-0.718-0.111-1.076-0.56-1.076c-0.382,0-0.768,0.221-1.157,0.661L83.2,50.258c0.194-0.209,0.432-0.385,0.712-0.527
			c0.279-0.142,0.559-0.213,0.835-0.213c0.972,0,1.389,0.658,1.251,1.974l-0.447,4.251h-0.527l-0.102-0.729
			c-0.114,0.3-0.274,0.524-0.481,0.673c-0.206,0.149-0.429,0.225-0.668,0.225c-0.403,0-0.696-0.129-0.879-0.387
			c-0.182-0.258-0.235-0.742-0.161-1.453l0.021-0.201C82.828,53.158,82.983,52.674,83.22,52.416z M84.026,55.203
			c0.217,0,0.396-0.078,0.535-0.235c0.141-0.157,0.238-0.44,0.297-0.853l0.032-0.303c0.03-0.441-0.006-0.747-0.111-0.92
			c-0.105-0.172-0.266-0.258-0.482-0.258c-0.374,0-0.599,0.355-0.673,1.066l-0.046,0.437C83.503,54.848,83.652,55.203,84.026,55.203
			z"/>
		<path fill="#474647" d="M89.412,49.518l0.224,0.012l-0.168,0.953c-0.099-0.053-0.197-0.078-0.294-0.078
			c-0.568,0-0.919,0.59-1.05,1.771l-0.375,3.566h-0.864l0.637-6.057h0.527l0.139,1.031C88.421,49.918,88.829,49.518,89.412,49.518z"
			/>
		<path fill="#474647" d="M89.86,50.381l0.073-0.695h0.594l0.459-1.491h0.517l-0.156,1.491h0.796l-0.073,0.695h-0.796l-0.443,4.217
			c-0.041,0.396,0.047,0.594,0.264,0.594c0.142,0,0.297-0.059,0.467-0.179l0.099,0.661c-0.271,0.158-0.541,0.236-0.811,0.236
			c-0.673,0-0.956-0.497-0.852-1.492l0.424-4.037H89.86z"/>
		<path fill="#474647" d="M95.204,49.686h0.853l-0.637,6.057h-0.526l-0.102-0.74c-0.235,0.605-0.631,0.908-1.184,0.908
			c-0.411,0-0.708-0.127-0.891-0.381c-0.183-0.255-0.236-0.74-0.161-1.459l0.461-4.385h0.853l-0.468,4.452
			c-0.043,0.411-0.022,0.692,0.062,0.842s0.229,0.224,0.431,0.224c0.456,0,0.737-0.362,0.843-1.088L95.204,49.686z"/>
		<path fill="#474647" d="M97.48,49.686h0.527l0.122,0.977c0.252-0.764,0.673-1.145,1.264-1.145c0.396,0,0.682,0.168,0.856,0.505
			c0.174,0.336,0.213,0.953,0.119,1.851l-0.177,1.682c-0.095,0.897-0.264,1.514-0.508,1.851c-0.246,0.337-0.566,0.505-0.963,0.505
			c-0.546,0-0.867-0.352-0.965-1.055l-0.306,2.904h-0.819L97.48,49.686z M97.981,52.713c-0.07,0.674-0.083,1.205-0.038,1.594
			s0.117,0.637,0.219,0.746c0.101,0.107,0.244,0.162,0.432,0.162c0.403,0,0.654-0.464,0.752-1.391l0.233-2.221
			c0.097-0.927-0.053-1.391-0.449-1.391c-0.172,0-0.32,0.053-0.448,0.156c-0.127,0.105-0.254,0.337-0.381,0.695
			c-0.128,0.359-0.229,0.857-0.303,1.492L97.981,52.713z"/>
		<path fill="#474647" d="M105.984,55.742l-0.312-4.711l-1.303,4.711h-0.863l-0.474-6.057h0.852l0.253,4.531l1.239-4.531h0.863
			l0.311,4.52l1.203-4.52h0.842l-1.736,6.057H105.984z"/>
		<path fill="#474647" d="M111.468,55.529c-0.28,0.254-0.662,0.381-1.145,0.381s-0.846-0.17-1.091-0.51
			c-0.244-0.341-0.319-0.955-0.226-1.846l0.177-1.682c0.093-0.891,0.298-1.505,0.613-1.846c0.316-0.34,0.729-0.51,1.237-0.51
			c0.508,0,0.876,0.168,1.103,0.505c0.227,0.336,0.292,0.953,0.198,1.851l-0.126,1.199h-2.299l-0.067,0.64
			c-0.105,1.002,0.08,1.503,0.559,1.503c0.232,0,0.42-0.082,0.565-0.247c0.144-0.164,0.266-0.472,0.365-0.919l0.738,0.123
			C111.949,54.822,111.749,55.274,111.468,55.529z M110.053,51.716l-0.067,0.64h1.435l0.067-0.64
			c0.104-1.002-0.078-1.503-0.549-1.503C110.452,50.213,110.157,50.714,110.053,51.716z"/>
		<path fill="#474647" d="M115.719,55.529c-0.28,0.254-0.662,0.381-1.145,0.381s-0.846-0.17-1.091-0.51
			c-0.244-0.341-0.319-0.955-0.226-1.846l0.177-1.682c0.093-0.891,0.298-1.505,0.613-1.846c0.316-0.34,0.729-0.51,1.237-0.51
			c0.508,0,0.876,0.168,1.103,0.505c0.227,0.336,0.292,0.953,0.198,1.851l-0.126,1.199h-2.299l-0.067,0.64
			c-0.105,1.002,0.08,1.503,0.559,1.503c0.232,0,0.42-0.082,0.565-0.247c0.144-0.164,0.266-0.472,0.365-0.919l0.738,0.123
			C116.2,54.822,116,55.274,115.719,55.529z M114.304,51.716l-0.067,0.64h1.435l0.067-0.64c0.104-1.002-0.078-1.503-0.549-1.503
			C114.703,50.213,114.408,50.714,114.304,51.716z"/>
		<path fill="#474647" d="M118.298,55.742h-0.864l0.872-8.299h0.864l-0.486,4.631l1.619-2.389h0.897l-1.726,2.434l1.279,3.623
			h-0.931l-0.941-2.781l-0.343,0.493L118.298,55.742z"/>
		<path fill="#474647" d="M123.995,55.529c-0.28,0.254-0.662,0.381-1.145,0.381s-0.846-0.17-1.091-0.51
			c-0.244-0.341-0.319-0.955-0.226-1.846l0.177-1.682c0.093-0.891,0.298-1.505,0.613-1.846c0.316-0.34,0.729-0.51,1.237-0.51
			c0.508,0,0.876,0.168,1.103,0.505c0.227,0.336,0.292,0.953,0.198,1.851l-0.126,1.199h-2.299l-0.067,0.64
			c-0.105,1.002,0.08,1.503,0.559,1.503c0.232,0,0.42-0.082,0.565-0.247c0.144-0.164,0.266-0.472,0.365-0.919l0.738,0.123
			C124.477,54.822,124.276,55.274,123.995,55.529z M122.58,51.716l-0.067,0.64h1.435l0.067-0.64
			c0.104-1.002-0.078-1.503-0.549-1.503C122.979,50.213,122.685,50.714,122.58,51.716z"/>
		<path fill="#474647" d="M126.574,55.742h-0.864l0.637-6.057h0.527l0.123,0.965c0.236-0.756,0.669-1.133,1.297-1.133
			c0.389,0,0.668,0.172,0.838,0.516c0.169,0.344,0.206,0.973,0.11,1.885l-0.402,3.824h-0.864l0.434-4.127
			c0.099-0.935-0.035-1.402-0.401-1.402c-0.554,0-0.922,0.801-1.104,2.4L126.574,55.742z"/>
		<path fill="#474647" d="M131.222,55.91c-0.389,0-0.671-0.17-0.849-0.51c-0.177-0.341-0.219-0.955-0.125-1.846l0.177-1.682
			c0.093-0.891,0.265-1.505,0.513-1.846c0.249-0.34,0.567-0.51,0.956-0.51c0.539,0,0.872,0.321,0.998,0.965l0.319-3.039h0.818
			l-0.872,8.299h-0.527l-0.146-1.167C132.241,55.465,131.82,55.91,131.222,55.91z M132.332,54.312
			c0.123-0.384,0.22-0.917,0.291-1.599c0.071-0.68,0.085-1.213,0.039-1.598c-0.045-0.385-0.12-0.631-0.225-0.74
			c-0.104-0.107-0.25-0.162-0.438-0.162c-0.381,0-0.62,0.464-0.717,1.391l-0.233,2.221c-0.055,0.516-0.041,0.877,0.042,1.082
			s0.219,0.309,0.405,0.309s0.343-0.055,0.467-0.162C132.086,54.943,132.21,54.697,132.332,54.312z"/>
	</g>
</g>
</svg>
