<?xml version="1.0" encoding="utf-8"?>
<!-- Generator: Adobe Illustrator 16.0.0, SVG Export Plug-In . SVG Version: 6.00 Build 0)  -->
<!DOCTYPE svg PUBLIC "-//W3C//DTD SVG 1.1//EN" "http://www.w3.org/Graphics/SVG/1.1/DTD/svg11.dtd">
<svg version="1.1" id="Layer_1" xmlns="http://www.w3.org/2000/svg" xmlns:xlink="http://www.w3.org/1999/xlink" x="0px" y="0px"
	 width="140px" height="60px" viewBox="0 0 140 60" enable-background="new 0 0 140 60" xml:space="preserve">
<g enable-background="new    ">
	<path fill="#CCCCCC" d="M5.513,6.161l0.084-0.804h0.688l0.531-1.724h0.596L7.23,5.357h0.92L8.065,6.161h-0.92l-0.512,4.872
		c-0.048,0.458,0.053,0.687,0.304,0.687c0.164,0,0.344-0.069,0.54-0.208l0.114,0.765c-0.313,0.181-0.625,0.272-0.936,0.272
		c-0.777,0-1.105-0.574-0.985-1.723l0.49-4.665H5.513z"/>
	<path fill="#CCCCCC" d="M9.514,12.355H8.516l1.008-9.589h0.946l-0.36,3.421c0.279-0.682,0.743-1.023,1.39-1.023
		c0.449,0,0.772,0.199,0.968,0.596c0.195,0.398,0.238,1.124,0.127,2.177l-0.464,4.419h-0.998l0.501-4.769
		c0.114-1.08-0.042-1.62-0.464-1.62c-0.64,0-1.065,0.924-1.276,2.773L9.514,12.355z"/>
	<path fill="#CCCCCC" d="M16.602,12.108c-0.325,0.294-0.765,0.44-1.323,0.44c-0.557,0-0.976-0.196-1.259-0.589
		s-0.37-1.103-0.262-2.132l0.204-1.943c0.108-1.028,0.345-1.738,0.71-2.132c0.365-0.393,0.841-0.589,1.429-0.589
		c0.587,0,1.012,0.194,1.272,0.583c0.262,0.389,0.338,1.102,0.229,2.138l-0.146,1.387H14.8l-0.078,0.738
		c-0.122,1.158,0.094,1.736,0.646,1.736c0.268,0,0.485-0.095,0.652-0.285c0.166-0.19,0.307-0.544,0.422-1.062l0.854,0.142
		C17.158,11.292,16.926,11.815,16.602,12.108z M14.966,7.703l-0.078,0.739h1.658l0.078-0.739c0.122-1.158-0.09-1.736-0.634-1.736
		C15.429,5.966,15.087,6.545,14.966,7.703z"/>
</g>
<g>
	<g>
		<rect x="89.83" y="11.47" fill="#666666" width="47.855" height="33.603"/>
		<g>
			<g enable-background="new    ">
				<path fill="#999999" d="M10.429,35.115c0-1.805-0.609-3.191-1.827-4.161l-2.707-1.996c-2.03-1.443-3.045-3.574-3.045-6.394
					c0-2.346,0.445-3.986,1.336-4.923c0.891-0.936,2.109-1.404,3.654-1.404c1.544,0,2.746,0.435,3.603,1.303
					c0.857,0.869,1.375,2.441,1.556,4.72l-2.571,0.575c-0.09-2.887-0.93-4.33-2.52-4.33c-1.59,0-2.385,1.229-2.385,3.688
					c0,1.082,0.118,1.962,0.355,2.639c0.237,0.677,0.694,1.285,1.371,1.826l2.672,1.996c0.631,0.452,1.139,0.88,1.522,1.286
					c0.383,0.405,0.75,1.055,1.1,1.945c0.349,0.891,0.524,1.945,0.524,3.163c0,2.165-0.469,3.688-1.404,4.567
					c-0.936,0.879-2.205,1.318-3.806,1.318c-1.602,0-2.854-0.52-3.755-1.558C3.2,38.34,2.647,36.49,2.444,33.829l2.537-0.44
					c0.09,1.918,0.367,3.282,0.829,4.094c0.462,0.812,1.11,1.22,1.945,1.22C9.538,38.701,10.429,37.506,10.429,35.115z"/>
				<path fill="#999999" d="M14.929,18.91v-2.165h9.236v2.165h-3.282v21.517H18.21V18.91H14.929z"/>
				<path fill="#999999" d="M33.705,40.427l-1.049-6.157h-4.77l-1.015,6.157h-2.706l4.33-23.682h3.586l4.331,23.682H33.705z
					 M30.288,20.162l-2.03,11.941h4.026L30.288,20.162z"/>
				<path fill="#999999" d="M39.084,40.427V16.745h4.195c1.669,0,2.966,0.53,3.891,1.59c0.925,1.061,1.387,2.966,1.387,5.718v0.169
					c0,3.429-0.834,5.604-2.503,6.529l2.808,9.676h-2.774l-2.639-9.065h-1.658v9.065H39.084z M45.884,24.561v-1.016
					c0-1.736-0.231-2.943-0.693-3.62c-0.462-0.676-1.1-1.015-1.912-1.015h-1.488v10.318h1.488
					C45.016,29.229,45.884,27.673,45.884,24.561z"/>
				<path fill="#999999" d="M50.451,18.91v-2.165h9.236v2.165h-3.282v21.517h-2.673V18.91H50.451z"/>
				<path fill="#999999" d="M69.835,16.745h2.672v16.61c0,2.865-0.456,4.845-1.37,5.938c-0.913,1.096-2.205,1.643-3.874,1.643
					c-1.669,0-2.96-0.547-3.874-1.643c-0.914-1.093-1.37-3.072-1.37-5.938v-16.61h2.673v17.118c0,1.826,0.225,3.096,0.676,3.807
					c0.451,0.71,1.077,1.064,1.878,1.064c0.8,0,1.432-0.354,1.895-1.064c0.462-0.711,0.693-1.979,0.693-3.807L69.835,16.745
					L69.835,16.745z"/>
				<path fill="#999999" d="M76.533,40.427V16.745h4.195c1.689,0,2.994,0.547,3.905,1.641c0.914,1.095,1.37,3.073,1.37,5.938v0.169
					c0,2.865-0.456,4.838-1.37,5.921c-0.911,1.082-2.216,1.624-3.905,1.624H79.24v8.39L76.533,40.427L76.533,40.427z M83.334,24.933
					v-1.049c0-3.315-0.869-4.974-2.605-4.974H79.24v10.995h1.488C82.465,29.905,83.334,28.248,83.334,24.933z"/>
			</g>
			<g enable-background="new    ">
				<path fill="#FFFFFF" d="M94.932,40.427V16.745h2.705v21.517h5.244v2.165H94.932z"/>
				<path fill="#FFFFFF" d="M105.52,40.427V16.745h2.707v23.682H105.52z"/>
				<path fill="#FFFFFF" d="M115.195,29.702v10.725h-2.707V16.745h8.119v2.165h-5.412v8.627h4.904v2.165H115.195z"/>
				<path fill="#FFFFFF" d="M126.122,29.702v8.56h5.886v2.165h-8.592V16.745h8.491v2.165h-5.785v8.627h5.276v2.165H126.122z"/>
			</g>
		</g>
	</g>
</g>
</svg>
