<?xml version="1.0" encoding="utf-8"?>
<!-- Generator: Adobe Illustrator 16.0.0, SVG Export Plug-In . SVG Version: 6.00 Build 0)  -->
<!DOCTYPE svg PUBLIC "-//W3C//DTD SVG 1.1//EN" "http://www.w3.org/Graphics/SVG/1.1/DTD/svg11.dtd">
<svg version="1.1" id="Layer_1" xmlns="http://www.w3.org/2000/svg" xmlns:xlink="http://www.w3.org/1999/xlink" x="0px" y="0px"
	 width="120px" height="120px" viewBox="0 0 120 120" enable-background="new 0 0 120 120" xml:space="preserve">
<g>
	<path fill="#666666" d="M0.008,120c39.89,0,79.666,0,119.487,0c0-3.402,0.016-6.737-0.034-10.073
		c-0.006-0.249-0.438-0.62-0.739-0.719c-13.14-4.319-26.29-8.61-39.428-12.928c-0.479-0.157-0.945-0.482-1.309-0.84
		c-2.289-2.247-4.466-4.624-6.86-6.75c-0.947-0.84-0.939-1.478-0.691-2.53c0.38-1.635,1.013-3.059,2.23-4.244
		c0.624-0.609,1.157-1.331,1.651-2.056c2.242-3.292,3.048-6.979,2.872-10.926c2.039,0.942,2.53,0.792,3.198-1.305
		c1.285-4.035,2.492-8.091,3.682-12.154c0.16-0.546,0.116-1.195,0.018-1.77c-0.199-1.141-0.768-1.463-1.889-1.224
		c-0.382,0.083-0.775,0.124-1.306,0.206c0.371-0.97,0.754-1.752,0.972-2.579c0.41-1.577,0.768-3.17,1.073-4.771
		c0.552-2.867,1.068-5.741,1.56-8.618c0.38-2.221-0.683-4.117-1.533-6.021c-1.439-3.22-2.833-6.475-5.161-9.539
		c1.655,0.312,3.064,0.578,4.647,0.877c-2.13-2.833-4.683-4.819-7.686-6.231c-0.481-0.226-0.817-0.456-0.703-1.031
		c0.237-1.209-0.323-2.095-1.109-2.931c-0.752-0.803-1.437-1.667-2.155-2.504c-0.184-0.214-0.373-0.424-0.564-0.634
		c-0.164-0.182-0.332-0.36-0.566-0.612c-0.067,1.334,1.429,2.704-0.47,3.686c-0.136-0.226-0.266-0.436-0.392-0.648
		c-1.214-2.057-2.404-4.127-3.653-6.161c-0.276-0.449-0.756-0.771-1.142-1.152c-0.069,0.065-0.142,0.131-0.214,0.198
		c0.311,0.979,0.577,1.975,0.946,2.932c0.271,0.705,0.201,1.216-0.632,1.648c-0.9-1.445-1.85-2.883-2.694-4.38
		c-0.347-0.614-0.723-0.682-1.288-0.475c-0.539,0.197-0.927,0.483-0.92,1.148c0.004,0.403-0.093,0.812-0.189,1.208
		c-0.149,0.608-0.437,0.866-1.072,0.444c-0.623-0.415-1.275-0.81-1.961-1.103c-0.908-0.388-1.865-0.664-2.798-0.998
		c-0.28-0.1-0.549-0.229-0.983-0.414c0.474,0.951,0.865,1.739,1.275,2.565c-1.174,0.108-2.125-0.154-3.009-0.982
		c-0.638-0.596-1.53-0.922-2.309-1.368c-0.112,0.118-0.225,0.236-0.337,0.354c0.551,0.845,1.123,1.677,1.64,2.542
		c0.152,0.254,0.15,0.601,0.219,0.904c-0.333-0.06-0.697-0.055-0.996-0.192c-1.198-0.548-1.798-1.603-2.246-2.773
		c-0.17-0.443-0.361-0.879-0.567-1.379c-1.113,1.744-1.031,1.336-1.968,1.042c-0.351,0.519-0.581,1.259-1.021,1.42
		c-0.754,0.275-1.646,0.277-2.47,0.229c-0.836-0.049-1.661-0.297-2.657-0.49c0.804,1.977,1.273,3.874,3.402,4.82
		c-0.495,0.435-0.805,0.787-1.186,1.022c-0.72,0.446-1.48,0.828-2.225,1.232c-2.208,1.201-4.384,2.463-6.634,3.578
		c-1.521,0.753-2.424,2.145-2.495,3.525c-0.07,1.377-0.636,2.361-1.188,3.437c-0.902,1.759-1.9,3.468-2.809,5.224
		c-1.476,2.852-2.385,5.823-1.618,9.074c0.553,2.351,1.135,4.695,1.732,7.035c0.275,1.075,0.618,2.134,0.976,3.357
		c-0.444-0.212-0.69-0.345-0.948-0.451c-1.539-0.629-2.677-0.142-3.161,1.457c-0.232,0.768-0.316,1.597-0.356,2.405
		c-0.15,2.979,0.352,5.893,1.069,8.764c0.523,2.097,1.172,4.162,1.795,6.233c0.267,0.888,0.85,1.276,1.806,0.979
		c0.496-0.153,1.014-0.237,1.572-0.362c0.038,0.215,0.074,0.395,0.099,0.574c0.285,2.083,0.446,4.19,0.879,6.242
		c0.717,3.398,2.011,6.523,4.726,8.911c0.857,0.756,1.535,1.729,2.232,2.649c0.579,0.766,0.949,1.585,0.196,2.514
		c-0.242,0.301-0.295,0.752-0.442,1.132c-0.511,1.32-1.325,2.35-2.491,3.216c-3.061,2.274-5.174,5.137-4.992,9.193
		c0.027,0.597-0.344,0.716-0.733,0.92c-6.248,3.298-12.542,6.512-18.71,9.948c-2.213,1.234-4.387,2.377-6.885,2.841
		c-0.277,0.05-0.59,0.086-0.805,0.242c-0.234,0.171-0.518,0.466-0.53,0.719C-0.022,117.52,0.008,118.715,0.008,120z"/>
</g>
</svg>
